<svg width="733" height="239" viewBox="0 0 733 239" fill="none" xmlns="http://www.w3.org/2000/svg">
<path d="M12 169.98H5V167.74C5 166.994 5.15 166.35 5.45 165.81C5.75 165.264 6.16333 164.84 6.69 164.54C7.21667 164.24 7.82 164.09 8.5 164.09C9.18 164.09 9.78333 164.24 10.31 164.54C10.8367 164.84 11.25 165.264 11.55 165.81C11.85 166.35 12 166.994 12 167.74V169.98ZM11.15 169.02V167.73C11.15 167.21 11.0433 166.75 10.83 166.35C10.6167 165.944 10.3133 165.624 9.92 165.39C9.52 165.157 9.04667 165.04 8.5 165.04C7.94667 165.04 7.47333 165.157 7.08 165.39C6.68667 165.624 6.38333 165.944 6.17 166.35C5.95667 166.75 5.85 167.21 5.85 167.73V169.02H11.15ZM12 160.35C12 160.91 11.8967 161.407 11.69 161.84C11.4767 162.273 11.18 162.613 10.8 162.86C10.4133 163.1 9.96333 163.22 9.45 163.22C8.94333 163.22 8.49 163.117 8.09 162.91C7.68333 162.703 7.36333 162.417 7.13 162.05C6.89667 161.683 6.78 161.257 6.78 160.77C6.78 160.243 6.89333 159.807 7.12 159.46C7.34667 159.107 7.65333 158.843 8.04 158.67C8.42 158.497 8.84667 158.41 9.32 158.41C9.39333 158.41 9.47 158.413 9.55 158.42C9.63 158.42 9.7 158.427 9.76 158.44V162.24C10.0733 162.207 10.34 162.103 10.56 161.93C10.7733 161.757 10.9367 161.537 11.05 161.27C11.1567 160.997 11.21 160.697 11.21 160.37V159.04H12V160.35ZM9.11 162.25V159.34C8.98333 159.34 8.85 159.353 8.71 159.38C8.56333 159.407 8.42333 159.453 8.29 159.52C8.15 159.587 8.02667 159.677 7.92 159.79C7.80667 159.897 7.71667 160.033 7.65 160.2C7.58333 160.36 7.55 160.55 7.55 160.77C7.55 161.003 7.59667 161.21 7.69 161.39C7.77667 161.563 7.89667 161.713 8.05 161.84C8.19667 161.967 8.36333 162.063 8.55 162.13C8.73667 162.197 8.92333 162.237 9.11 162.25ZM12 157.307H11.21L11.21 154.867C11.21 154.707 11.1767 154.57 11.11 154.457C11.0367 154.337 10.9433 154.247 10.83 154.187C10.7167 154.127 10.5967 154.097 10.47 154.097C10.35 154.097 10.24 154.123 10.14 154.177C10.0333 154.23 9.95 154.313 9.89 154.427C9.82333 154.533 9.79 154.663 9.79 154.817V155.847C9.79 156.173 9.73667 156.46 9.63 156.707C9.51667 156.947 9.35333 157.137 9.14 157.277C8.92667 157.41 8.66667 157.477 8.36 157.477C8.1 157.477 7.86 157.413 7.64 157.287C7.42 157.16 7.24333 156.983 7.11 156.757C6.97 156.53 6.9 156.27 6.9 155.977V153.627H7.69V155.887C7.69 156.093 7.75333 156.257 7.88 156.377C8.00667 156.497 8.15667 156.557 8.33 156.557C8.49667 156.557 8.64333 156.497 8.77 156.377C8.89 156.25 8.95 156.073 8.95 155.847V154.867C8.95 154.5 9.01 154.193 9.13 153.947C9.24333 153.693 9.41 153.503 9.63 153.377C9.85 153.243 10.12 153.177 10.44 153.177C10.7133 153.177 10.97 153.243 11.21 153.377C11.4433 153.51 11.6333 153.697 11.78 153.937C11.9267 154.17 12 154.443 12 154.757L12 157.307ZM12 151.963H6.9V151.033H12V151.963ZM6.09 151.493C6.09 151.66 6.03 151.807 5.91 151.933C5.78333 152.053 5.63667 152.113 5.47 152.113C5.30333 152.113 5.16 152.053 5.04 151.933C4.91333 151.807 4.85 151.66 4.85 151.493C4.85 151.327 4.91333 151.183 5.04 151.063C5.16 150.937 5.30333 150.873 5.47 150.873C5.63667 150.873 5.78333 150.937 5.91 151.063C6.03 151.183 6.09 151.327 6.09 151.493ZM14.03 148.811H13.24V146.311C13.24 146.064 13.1667 145.874 13.02 145.741C12.8733 145.601 12.68 145.531 12.44 145.531H11.04V145.551C11.2333 145.677 11.4067 145.831 11.56 146.011C11.7133 146.191 11.8367 146.397 11.93 146.631C12.0167 146.864 12.06 147.127 12.06 147.421C12.06 147.901 11.95 148.324 11.73 148.691C11.5033 149.057 11.1933 149.344 10.8 149.551C10.4 149.757 9.94333 149.861 9.43 149.861C8.93 149.861 8.48 149.757 8.08 149.551C7.68 149.344 7.36333 149.047 7.13 148.661C6.89667 148.267 6.78 147.794 6.78 147.241C6.78 146.707 6.89333 146.244 7.12 145.851C7.34667 145.457 7.66333 145.154 8.07 144.941C8.47 144.721 8.94 144.611 9.48 144.611H12.5C12.9667 144.611 13.3367 144.747 13.61 145.021C13.89 145.294 14.03 145.667 14.03 146.141V148.811ZM11.27 147.251C11.27 146.911 11.19 146.614 11.03 146.361C10.87 146.101 10.6533 145.901 10.38 145.761C10.1 145.614 9.78667 145.541 9.44 145.541C9.08667 145.541 8.77 145.611 8.49 145.751C8.21 145.891 7.99 146.087 7.83 146.341C7.66333 146.594 7.58 146.897 7.58 147.251C7.58 147.597 7.66333 147.897 7.83 148.151C7.99 148.397 8.21333 148.591 8.5 148.731C8.78 148.864 9.09667 148.931 9.45 148.931C9.78333 148.931 10.09 148.864 10.37 148.731C10.6433 148.591 10.8633 148.397 11.03 148.151C11.19 147.897 11.27 147.597 11.27 147.251ZM12 143.184H9.05C8.59667 143.184 8.2 143.084 7.86 142.884C7.52 142.677 7.25667 142.394 7.07 142.034C6.87667 141.674 6.78 141.264 6.78 140.804C6.78 140.337 6.87667 139.927 7.07 139.574C7.25667 139.214 7.52 138.934 7.86 138.734C8.2 138.527 8.59667 138.424 9.05 138.424H12V139.344H9.06C8.75333 139.344 8.49 139.414 8.27 139.554C8.04333 139.687 7.87 139.867 7.75 140.094C7.63 140.314 7.57 140.551 7.57 140.804C7.57 141.057 7.63 141.297 7.75 141.524C7.87 141.744 8.04333 141.924 8.27 142.064C8.49 142.197 8.75333 142.264 9.06 142.264H12V143.184ZM12 134.373C12 134.933 11.8967 135.43 11.69 135.863C11.4767 136.297 11.18 136.637 10.8 136.883C10.4133 137.123 9.96333 137.243 9.45 137.243C8.94333 137.243 8.49 137.14 8.09 136.933C7.68333 136.727 7.36333 136.44 7.13 136.073C6.89667 135.707 6.78 135.28 6.78 134.793C6.78 134.267 6.89333 133.83 7.12 133.483C7.34667 133.13 7.65333 132.867 8.04 132.693C8.42 132.52 8.84667 132.433 9.32 132.433C9.39333 132.433 9.47 132.437 9.55 132.443C9.63 132.443 9.7 132.45 9.76 132.463V136.263C10.0733 136.23 10.34 136.127 10.56 135.953C10.7733 135.78 10.9367 135.56 11.05 135.293C11.1567 135.02 11.21 134.72 11.21 134.393V133.063H12V134.373ZM9.11 136.273V133.363C8.98333 133.363 8.85 133.377 8.71 133.403C8.56333 133.43 8.42333 133.477 8.29 133.543C8.15 133.61 8.02667 133.7 7.92 133.813C7.80667 133.92 7.71667 134.057 7.65 134.223C7.58333 134.383 7.55 134.573 7.55 134.793C7.55 135.027 7.59667 135.233 7.69 135.413C7.77667 135.587 7.89667 135.737 8.05 135.863C8.19667 135.99 8.36333 136.087 8.55 136.153C8.73667 136.22 8.92333 136.26 9.11 136.273ZM12 131.29H8.35C7.89667 131.29 7.54333 131.164 7.29 130.91C7.03 130.65 6.9 130.294 6.9 129.84V128.79H7.69V129.67C7.69 129.89 7.75333 130.064 7.88 130.19C8.00667 130.31 8.18333 130.37 8.41 130.37H12V131.29ZM14.16 119.939C14.16 120.219 14.1 120.476 13.98 120.709C13.86 120.942 13.6933 121.126 13.48 121.259C13.2667 121.392 13.02 121.459 12.74 121.459C12.4667 121.459 12.2267 121.392 12.02 121.259C11.82 121.126 11.6567 120.952 11.53 120.739C11.3967 120.519 11.3133 120.289 11.28 120.049C11.2533 120.076 11.2167 120.119 11.17 120.179C11.1167 120.239 11.0333 120.336 10.92 120.469L10.45 121.049C10.81 121.249 11.1167 121.482 11.37 121.749C11.6167 122.016 11.8033 122.316 11.93 122.649C12.0567 122.982 12.12 123.356 12.12 123.769C12.12 124.276 12.0233 124.719 11.83 125.099C11.63 125.472 11.3567 125.766 11.01 125.979C10.6567 126.192 10.2467 126.299 9.78 126.299C9.47333 126.299 9.17333 126.236 8.88 126.109C8.58667 125.982 8.32 125.799 8.08 125.559C7.83333 125.312 7.63333 125.012 7.48 124.659C7.38667 124.759 7.28 124.859 7.16 124.959C7.03333 125.059 6.89667 125.142 6.75 125.209C6.60333 125.269 6.45 125.299 6.29 125.299C6.03667 125.299 5.80333 125.232 5.59 125.099C5.37 124.966 5.19667 124.786 5.07 124.559C4.93667 124.326 4.87 124.062 4.87 123.769C4.87 123.462 4.93 123.199 5.05 122.979C5.17 122.752 5.33667 122.576 5.55 122.449C5.75667 122.322 6 122.259 6.28 122.259C6.56667 122.259 6.82667 122.349 7.06 122.529C7.28667 122.702 7.47333 122.946 7.62 123.259L9.17 121.359L9.08 121.309C8.71333 121.149 8.41333 121.002 8.18 120.869C7.94 120.736 7.75 120.599 7.61 120.459C7.47 120.319 7.37333 120.159 7.32 119.979C7.26 119.799 7.23 119.586 7.23 119.339V118.849H7.96V119.299C7.96 119.466 7.98333 119.606 8.03 119.719C8.07667 119.826 8.16 119.926 8.28 120.019C8.4 120.112 8.56667 120.209 8.78 120.309C8.99333 120.409 9.26333 120.532 9.59 120.679L9.69 120.719L10.09 120.219C10.4433 119.766 10.7633 119.406 11.05 119.139C11.33 118.872 11.5967 118.679 11.85 118.559C12.1033 118.439 12.3633 118.379 12.63 118.379C12.9167 118.379 13.1767 118.446 13.41 118.579C13.6433 118.706 13.8267 118.886 13.96 119.119C14.0933 119.352 14.16 119.626 14.16 119.939ZM11.3 123.709C11.3 123.416 11.2533 123.152 11.16 122.919C11.06 122.679 10.91 122.459 10.71 122.259C10.5033 122.059 10.24 121.869 9.92 121.689L7.97 124.069C8.09 124.342 8.24 124.579 8.42 124.779C8.6 124.972 8.79667 125.119 9.01 125.219C9.22333 125.319 9.45333 125.369 9.7 125.369C9.99333 125.369 10.2633 125.299 10.51 125.159C10.75 125.019 10.9433 124.826 11.09 124.579C11.23 124.326 11.3 124.036 11.3 123.709ZM13.43 119.929C13.43 119.722 13.3567 119.552 13.21 119.419C13.07 119.279 12.88 119.209 12.64 119.209C12.5133 119.209 12.3833 119.232 12.25 119.279C12.1167 119.326 11.99 119.409 11.87 119.529C11.8833 119.736 11.9267 119.922 12 120.089C12.0733 120.256 12.1733 120.389 12.3 120.489C12.4333 120.582 12.59 120.629 12.77 120.629C12.9633 120.629 13.12 120.562 13.24 120.429C13.3667 120.296 13.43 120.129 13.43 119.929ZM7.14 123.839C7.07333 123.699 6.99667 123.572 6.91 123.459C6.82333 123.346 6.72667 123.256 6.62 123.189C6.51333 123.122 6.39667 123.089 6.27 123.089C6.09 123.089 5.93667 123.152 5.81 123.279C5.67667 123.399 5.61 123.569 5.61 123.789C5.61 123.929 5.64333 124.052 5.71 124.159C5.77 124.259 5.85 124.336 5.95 124.389C6.05 124.442 6.15667 124.469 6.27 124.469C6.39667 124.469 6.51333 124.439 6.62 124.379C6.72 124.312 6.81333 124.229 6.9 124.129C6.98667 124.029 7.06667 123.932 7.14 123.839ZM12 115.508H5V113.268C5 112.521 5.15 111.878 5.45 111.338C5.75 110.791 6.16333 110.368 6.69 110.068C7.21667 109.768 7.82 109.618 8.5 109.618C9.18 109.618 9.78333 109.768 10.31 110.068C10.8367 110.368 11.25 110.791 11.55 111.338C11.85 111.878 12 112.521 12 113.268V115.508ZM11.15 114.548V113.258C11.15 112.738 11.0433 112.278 10.83 111.878C10.6167 111.471 10.3133 111.151 9.92 110.918C9.52 110.684 9.04667 110.568 8.5 110.568C7.94667 110.568 7.47333 110.684 7.08 110.918C6.68667 111.151 6.38333 111.471 6.17 111.878C5.95667 112.278 5.85 112.738 5.85 113.258V114.548H11.15ZM12 105.877C12 106.437 11.8967 106.934 11.69 107.367C11.4767 107.801 11.18 108.141 10.8 108.387C10.4133 108.627 9.96333 108.747 9.45 108.747C8.94333 108.747 8.49 108.644 8.09 108.437C7.68333 108.231 7.36333 107.944 7.13 107.577C6.89667 107.211 6.78 106.784 6.78 106.297C6.78 105.771 6.89333 105.334 7.12 104.987C7.34667 104.634 7.65333 104.371 8.04 104.197C8.42 104.024 8.84667 103.937 9.32 103.937C9.39333 103.937 9.47 103.941 9.55 103.947C9.63 103.947 9.7 103.954 9.76 103.967V107.767C10.0733 107.734 10.34 107.631 10.56 107.457C10.7733 107.284 10.9367 107.064 11.05 106.797C11.1567 106.524 11.21 106.224 11.21 105.897V104.567H12V105.877ZM9.11 107.777V104.867C8.98333 104.867 8.85 104.881 8.71 104.907C8.56333 104.934 8.42333 104.981 8.29 105.047C8.15 105.114 8.02667 105.204 7.92 105.317C7.80667 105.424 7.71667 105.561 7.65 105.727C7.58333 105.887 7.55 106.077 7.55 106.297C7.55 106.531 7.59667 106.737 7.69 106.917C7.77667 107.091 7.89667 107.241 8.05 107.367C8.19667 107.494 8.36333 107.591 8.55 107.657C8.73667 107.724 8.92333 107.764 9.11 107.777ZM12.12 100.712C12.12 100.938 12.0567 101.145 11.93 101.332C11.7967 101.512 11.61 101.645 11.37 101.732L6.9 103.392V102.382L11.03 100.902C11.0967 100.875 11.1433 100.845 11.17 100.812C11.1967 100.778 11.21 100.742 11.21 100.702C11.21 100.655 11.1967 100.618 11.17 100.592C11.1433 100.558 11.0967 100.528 11.03 100.502L6.9 99.0118V98.0218L11.37 99.6818C11.61 99.7751 11.7967 99.9118 11.93 100.092C12.0567 100.272 12.12 100.478 12.12 100.712ZM12 94.6956C12 95.2556 11.8967 95.7523 11.69 96.1856C11.4767 96.619 11.18 96.959 10.8 97.2056C10.4133 97.4456 9.96333 97.5656 9.45 97.5656C8.94333 97.5656 8.49 97.4623 8.09 97.2556C7.68333 97.049 7.36333 96.7623 7.13 96.3956C6.89667 96.029 6.78 95.6023 6.78 95.1156C6.78 94.589 6.89333 94.1523 7.12 93.8056C7.34667 93.4523 7.65333 93.189 8.04 93.0156C8.42 92.8423 8.84667 92.7556 9.32 92.7556C9.39333 92.7556 9.47 92.759 9.55 92.7656C9.63 92.7656 9.7 92.7723 9.76 92.7856V96.5856C10.0733 96.5523 10.34 96.449 10.56 96.2756C10.7733 96.1023 10.9367 95.8823 11.05 95.6156C11.1567 95.3423 11.21 95.0423 11.21 94.7156V93.3856H12V94.6956ZM9.11 96.5956V93.6856C8.98333 93.6856 8.85 93.699 8.71 93.7256C8.56333 93.7523 8.42333 93.799 8.29 93.8656C8.15 93.9323 8.02667 94.0223 7.92 94.1356C7.80667 94.2423 7.71667 94.379 7.65 94.5456C7.58333 94.7056 7.55 94.8956 7.55 95.1156C7.55 95.349 7.59667 95.5556 7.69 95.7356C7.77667 95.909 7.89667 96.059 8.05 96.1856C8.19667 96.3123 8.36333 96.409 8.55 96.4756C8.73667 96.5423 8.92333 96.5823 9.11 96.5956ZM12 91.5825H4.7L4.7 90.6625H12V91.5825ZM12.12 86.7997C12.12 87.3197 12.0033 87.7797 11.77 88.1797C11.53 88.5797 11.21 88.8964 10.81 89.1297C10.4033 89.363 9.95 89.4797 9.45 89.4797C8.95 89.4797 8.5 89.363 8.1 89.1297C7.69333 88.8964 7.37333 88.5797 7.14 88.1797C6.9 87.7797 6.78 87.3197 6.78 86.7997C6.78 86.2797 6.9 85.8197 7.14 85.4197C7.37333 85.013 7.69 84.6964 8.09 84.4697C8.49 84.2364 8.94333 84.1197 9.45 84.1197C9.95 84.1197 10.4033 84.2364 10.81 84.4697C11.21 84.6964 11.53 85.013 11.77 85.4197C12.0033 85.8197 12.12 86.2797 12.12 86.7997ZM11.33 86.7997C11.33 86.4464 11.2467 86.1397 11.08 85.8797C10.9133 85.6197 10.69 85.4164 10.41 85.2697C10.1233 85.123 9.80333 85.0497 9.45 85.0497C9.09667 85.0497 8.78 85.123 8.5 85.2697C8.21333 85.4164 7.98667 85.6197 7.82 85.8797C7.65333 86.1397 7.57 86.4464 7.57 86.7997C7.57 87.1464 7.65333 87.453 7.82 87.7197C7.98667 87.9797 8.21333 88.183 8.5 88.3297C8.78 88.4764 9.09667 88.5497 9.45 88.5497C9.80333 88.5497 10.1233 88.4764 10.41 88.3297C10.69 88.183 10.9133 87.9797 11.08 87.7197C11.2467 87.453 11.33 87.1464 11.33 86.7997ZM6.78 80.3599C6.78 79.9733 6.84333 79.6199 6.97 79.2999C7.09 78.9799 7.27 78.7033 7.51 78.4699C7.75 78.2366 8.04 78.0566 8.38 77.9299C8.71333 77.7966 9.09 77.7299 9.51 77.7299C10.0367 77.7299 10.4967 77.8399 10.89 78.0599C11.2833 78.2733 11.5867 78.5666 11.8 78.9399C12.0133 79.3133 12.12 79.7366 12.12 80.2099C12.12 80.4699 12.0767 80.7199 11.99 80.9599C11.9033 81.1933 11.7833 81.4033 11.63 81.5899C11.47 81.7699 11.29 81.9166 11.09 82.0299V82.0499H14.2V82.9699H9.48C8.90667 82.9699 8.42 82.8566 8.02 82.6299C7.62 82.3966 7.31333 82.0833 7.1 81.6899C6.88667 81.2966 6.78 80.8533 6.78 80.3599ZM7.57 80.3599C7.57 80.6666 7.64667 80.9499 7.8 81.2099C7.95333 81.4633 8.17 81.6666 8.45 81.8199C8.73 81.9666 9.06 82.0399 9.44 82.0399C9.82667 82.0399 10.1633 81.9666 10.45 81.8199C10.73 81.6666 10.9467 81.4633 11.1 81.2099C11.2533 80.9499 11.33 80.6633 11.33 80.3499C11.33 80.0299 11.25 79.7433 11.09 79.4899C10.93 79.2366 10.71 79.0366 10.43 78.8899C10.15 78.7366 9.82333 78.6599 9.45 78.6599C9.06333 78.6599 8.73 78.7366 8.45 78.8899C8.17 79.0433 7.95333 79.2499 7.8 79.5099C7.64667 79.7633 7.57 80.0466 7.57 80.3599ZM12 73.9632C12 74.5232 11.8967 75.0199 11.69 75.4532C11.4767 75.8865 11.18 76.2265 10.8 76.4732C10.4133 76.7132 9.96333 76.8332 9.45 76.8332C8.94333 76.8332 8.49 76.7299 8.09 76.5232C7.68333 76.3165 7.36333 76.0299 7.13 75.6632C6.89667 75.2965 6.78 74.8699 6.78 74.3832C6.78 73.8565 6.89333 73.4199 7.12 73.0732C7.34667 72.7199 7.65333 72.4565 8.04 72.2832C8.42 72.1099 8.84667 72.0232 9.32 72.0232C9.39333 72.0232 9.47 72.0265 9.55 72.0332C9.63 72.0332 9.7 72.0399 9.76 72.0532V75.8532C10.0733 75.8199 10.34 75.7165 10.56 75.5432C10.7733 75.3699 10.9367 75.1499 11.05 74.8832C11.1567 74.6099 11.21 74.3099 11.21 73.9832V72.6532H12V73.9632ZM9.11 75.8632V72.9532C8.98333 72.9532 8.85 72.9665 8.71 72.9932C8.56333 73.0199 8.42333 73.0665 8.29 73.1332C8.15 73.1999 8.02667 73.2899 7.92 73.4032C7.80667 73.5099 7.71667 73.6465 7.65 73.8132C7.58333 73.9732 7.55 74.1632 7.55 74.3832C7.55 74.6165 7.59667 74.8232 7.69 75.0032C7.77667 75.1765 7.89667 75.3265 8.05 75.4532C8.19667 75.5799 8.36333 75.6765 8.55 75.7432C8.73667 75.8099 8.92333 75.8499 9.11 75.8632ZM12 70.8801H8.35C7.89667 70.8801 7.54333 70.7534 7.29 70.5001C7.03 70.2401 6.9 69.8834 6.9 69.4301V68.3801H7.69V69.2601C7.69 69.4801 7.75333 69.6534 7.88 69.7801C8.00667 69.9001 8.18333 69.9601 8.41 69.9601H12V70.8801Z" fill="#F9F2F2"/>
<path d="M27.5992 172V67H61.1992C72.3992 67 82.0492 69.25 90.1492 73.75C98.3492 78.25 104.699 84.45 109.199 92.35C113.699 100.25 115.949 109.3 115.949 119.5C115.949 129.7 113.699 138.75 109.199 146.65C104.699 154.55 98.3492 160.75 90.1492 165.25C82.0492 169.75 72.3992 172 61.1992 172H27.5992ZM41.9992 159.25H61.3492C69.1492 159.25 76.0492 157.65 82.0492 154.45C88.1492 151.25 92.9492 146.7 96.4492 140.8C99.9492 134.8 101.699 127.7 101.699 119.5C101.699 111.2 99.9492 104.1 96.4492 98.2C92.9492 92.3 88.1492 87.75 82.0492 84.55C76.0492 81.35 69.1492 79.75 61.3492 79.75H41.9992V159.25ZM159.004 172C153.204 172 148.054 170.65 143.554 167.95C139.154 165.15 135.704 161.5 133.204 157C130.704 152.5 129.454 147.6 129.454 142.3C129.454 137.5 130.554 133 132.754 128.8C135.054 124.6 138.354 121.3 142.654 118.9C138.454 116.2 135.254 112.85 133.054 108.85C130.854 104.85 129.754 100.65 129.754 96.25C129.754 90.85 131.004 85.95 133.504 81.55C136.104 77.15 139.604 73.65 144.004 71.05C148.404 68.35 153.254 67 158.554 67H200.104V79.75H160.204C157.104 79.75 154.354 80.5 151.954 82C149.554 83.5 147.654 85.5 146.254 88C144.854 90.4 144.154 93.15 144.154 96.25C144.154 99.15 144.854 101.8 146.254 104.2C147.754 106.6 149.754 108.55 152.254 110.05C154.754 111.45 157.504 112.15 160.504 112.15H194.554V124.9H161.554C157.854 124.9 154.654 125.75 151.954 127.45C149.354 129.05 147.304 131.2 145.804 133.9C144.404 136.5 143.704 139.3 143.704 142.3C143.704 145.3 144.404 148.1 145.804 150.7C147.204 153.3 149.204 155.4 151.804 157C154.404 158.5 157.454 159.25 160.954 159.25H200.104V172H159.004ZM249.975 173.8C246.575 173.8 243.475 172.85 240.675 170.95C237.975 168.95 235.975 166.15 234.675 162.55L209.775 95.5H224.925L247.125 157.45C247.525 158.45 247.975 159.15 248.475 159.55C248.975 159.95 249.525 160.15 250.125 160.15C250.825 160.15 251.375 159.95 251.775 159.55C252.275 159.15 252.725 158.45 253.125 157.45L275.475 95.5H290.325L265.425 162.55C264.025 166.15 261.975 168.95 259.275 170.95C256.575 172.85 253.475 173.8 249.975 173.8ZM303.248 172V160.15H339.848C342.248 160.15 344.298 159.65 345.998 158.65C347.798 157.55 349.148 156.15 350.048 154.45C350.948 152.75 351.398 150.95 351.398 149.05C351.398 147.25 350.998 145.6 350.198 144.1C349.398 142.5 348.148 141.25 346.448 140.35C344.848 139.35 342.898 138.85 340.598 138.85H325.148C320.248 138.85 315.948 138.05 312.248 136.45C308.648 134.75 305.798 132.3 303.698 129.1C301.698 125.9 300.698 122 300.698 117.4C300.698 113.5 301.648 109.9 303.548 106.6C305.448 103.3 308.098 100.65 311.498 98.65C314.898 96.55 318.798 95.5 323.198 95.5H358.448V107.35H324.548C321.448 107.35 318.998 108.3 317.198 110.2C315.398 112.1 314.498 114.35 314.498 116.95C314.498 119.45 315.398 121.65 317.198 123.55C319.098 125.35 321.748 126.25 325.148 126.25H339.848C345.348 126.25 349.948 127.15 353.648 128.95C357.448 130.65 360.298 133.15 362.198 136.45C364.198 139.75 365.198 143.8 365.198 148.6C365.198 152.7 364.198 156.55 362.198 160.15C360.198 163.65 357.398 166.5 353.798 168.7C350.298 170.9 346.198 172 341.498 172H303.248ZM383.399 172V95.5H397.349V172H383.399ZM390.449 83.35C387.949 83.35 385.749 82.45 383.849 80.65C382.049 78.75 381.149 76.55 381.149 74.05C381.149 71.55 382.049 69.4 383.849 67.6C385.749 65.7 387.949 64.75 390.449 64.75C392.949 64.75 395.099 65.7 396.899 67.6C398.799 69.4 399.749 71.55 399.749 74.05C399.749 76.55 398.799 78.75 396.899 80.65C395.099 82.45 392.949 83.35 390.449 83.35ZM430.691 202.45V190.6H468.191C471.891 190.6 474.741 189.5 476.741 187.3C478.841 185.1 479.891 182.2 479.891 178.6V157.6H479.591C477.691 160.5 475.391 163.1 472.691 165.4C469.991 167.7 466.891 169.55 463.391 170.95C459.891 172.25 455.941 172.9 451.541 172.9C444.341 172.9 437.991 171.25 432.491 167.95C426.991 164.55 422.691 159.9 419.591 154C416.491 148 414.941 141.15 414.941 133.45C414.941 125.95 416.491 119.2 419.591 113.2C422.691 107.2 427.141 102.45 432.941 98.95C438.841 95.45 445.941 93.7 454.241 93.7C462.241 93.7 469.191 95.4 475.091 98.8C480.991 102.2 485.541 106.95 488.741 113.05C492.041 119.05 493.691 126.1 493.691 134.2V179.5C493.691 186.5 491.641 192.05 487.541 196.15C483.441 200.35 477.841 202.45 470.741 202.45H430.691ZM454.091 161.05C459.191 161.05 463.641 159.85 467.441 157.45C471.341 155.05 474.341 151.8 476.441 147.7C478.641 143.5 479.741 138.8 479.741 133.6C479.741 128.3 478.691 123.55 476.591 119.35C474.491 115.15 471.541 111.85 467.741 109.45C463.941 106.95 459.391 105.7 454.091 105.7C448.891 105.7 444.391 106.95 440.591 109.45C436.891 111.85 433.991 115.2 431.891 119.5C429.891 123.7 428.891 128.45 428.891 133.75C428.891 138.75 429.891 143.35 431.891 147.55C433.991 151.65 436.891 154.95 440.591 157.45C444.391 159.85 448.891 161.05 454.091 161.05ZM515.089 172V127.75C515.089 120.95 516.589 115 519.589 109.9C522.689 104.8 526.939 100.85 532.339 98.05C537.739 95.15 543.889 93.7 550.789 93.7C557.789 93.7 563.939 95.15 569.239 98.05C574.639 100.85 578.839 104.8 581.839 109.9C584.939 115 586.489 120.95 586.489 127.75V172H572.689V127.9C572.689 123.3 571.639 119.35 569.539 116.05C567.539 112.65 564.839 110.05 561.439 108.25C558.139 106.45 554.589 105.55 550.789 105.55C546.989 105.55 543.389 106.45 539.989 108.25C536.689 110.05 533.989 112.65 531.889 116.05C529.889 119.35 528.889 123.3 528.889 127.9V172H515.089ZM647.249 172C638.849 172 631.399 170.45 624.899 167.35C618.399 164.15 613.299 159.7 609.599 154C605.999 148.2 604.199 141.45 604.199 133.75C604.199 126.15 605.749 119.35 608.849 113.35C611.949 107.25 616.249 102.45 621.749 98.95C627.249 95.45 633.649 93.7 640.949 93.7C648.849 93.7 655.399 95.4 660.599 98.8C665.899 102.2 669.849 106.8 672.449 112.6C675.049 118.3 676.349 124.7 676.349 131.8C676.349 132.9 676.299 134.05 676.199 135.25C676.199 136.45 676.099 137.5 675.899 138.4H618.899C619.399 143.1 620.949 147.1 623.549 150.4C626.149 153.6 629.449 156.05 633.449 157.75C637.549 159.35 642.049 160.15 646.949 160.15H666.899V172H647.249ZM618.749 128.65H662.399C662.399 126.75 662.199 124.75 661.799 122.65C661.399 120.45 660.699 118.35 659.699 116.35C658.699 114.25 657.349 112.4 655.649 110.8C654.049 109.1 651.999 107.75 649.499 106.75C647.099 105.75 644.249 105.25 640.949 105.25C637.449 105.25 634.349 105.95 631.649 107.35C629.049 108.65 626.799 110.45 624.899 112.75C622.999 114.95 621.549 117.45 620.549 120.25C619.549 123.05 618.949 125.85 618.749 128.65ZM693.496 172V117.25C693.496 110.45 695.396 105.15 699.196 101.35C703.096 97.45 708.446 95.5 715.246 95.5H730.996V107.35H717.796C714.496 107.35 711.896 108.3 709.996 110.2C708.196 112.1 707.296 114.75 707.296 118.15V172H693.496Z" fill="#F9F2F2"/>
</svg>
