<svg width="58" height="40" viewBox="0 0 58 40" fill="none" xmlns="http://www.w3.org/2000/svg">
<path d="M14.625 34.8203C13.2708 34.8203 11.9297 34.6641 10.6016 34.3516C9.29948 34.0391 8.04948 33.5833 6.85156 32.9844C5.65365 32.3594 4.59896 31.5391 3.6875 30.5234C2.77604 29.5078 2.28125 28.2969 2.20312 26.8906V25.25V24.6641C2.20312 23.9349 2.46354 23.3359 2.98438 22.8672C3.53125 22.3724 4.16927 22.125 4.89844 22.125C6.46094 22.2552 7.30729 23.1016 7.4375 24.6641V25.6797C7.48958 26.487 7.78906 27.1641 8.33594 27.7109C8.90885 28.2318 9.53385 28.6484 10.2109 28.9609C10.9141 29.2734 11.6302 29.5078 12.3594 29.6641C13.1146 29.8203 13.8698 29.8984 14.625 29.8984C15.3802 29.8984 16.1224 29.8203 16.8516 29.6641C17.6068 29.5078 18.3229 29.2734 19 28.9609C19.7031 28.6484 20.3281 28.2318 20.875 27.7109C21.4479 27.1641 21.7604 26.487 21.8125 25.6797V12.7891C21.8125 12.0599 22.0729 11.4609 22.5938 10.9922C23.1406 10.4974 23.7786 10.25 24.5078 10.25C26.0703 10.3802 26.9297 11.2266 27.0859 12.7891V25.25V26.8906C27.0078 28.2969 26.5 29.5078 25.5625 30.5234C24.651 31.5391 23.5964 32.3594 22.3984 32.9844C21.2005 33.5833 19.9375 34.0391 18.6094 34.3516C17.3073 34.6641 15.9792 34.8203 14.625 34.8203ZM41.0312 16.1094C40.0417 16.1615 39.2083 16.5391 38.5312 17.2422C37.8802 17.9453 37.4115 18.7526 37.125 19.6641C36.8385 20.5495 36.6953 21.4609 36.6953 22.3984C36.6953 23.3359 36.8255 24.2604 37.0859 25.1719C37.3724 26.0833 37.8542 26.8906 38.5312 27.5938C39.2083 28.2708 40.0417 28.6354 41.0312 28.6875H53.9219C55.5625 28.8438 56.4609 29.7422 56.6172 31.3828C56.5911 32.112 56.3177 32.724 55.7969 33.2188C55.276 33.6875 54.651 33.9219 53.9219 33.9219H41.4609H39.6641C37.8411 33.8177 36.3438 33.1276 35.1719 31.8516C34 30.5495 33.1536 29.0781 32.6328 27.4375C32.138 25.7969 31.8906 24.1172 31.8906 22.3984C31.8906 21.1224 32.0339 19.8594 32.3203 18.6094C32.6068 17.3594 33.0495 16.1745 33.6484 15.0547C34.2734 13.9089 35.0938 12.9323 36.1094 12.125C37.151 11.3177 38.3359 10.901 39.6641 10.875H40.4062H53.9219C55.5625 11.0312 56.4609 11.9297 56.6172 13.5703C56.6172 14.2995 56.3438 14.9115 55.7969 15.4062C55.276 15.875 54.651 16.1094 53.9219 16.1094H41.0312Z" fill="white"/>
<rect x="43" y="20" width="5" height="5" fill="white"/>
</svg>
